# xmcd
#
# Track frame offsets:
#	180
#	24160
#	42654
#	56161
#	81672
#	99474
#	113848
#	130587
#	144375
#	159735
#	172350
#	184640
#	199505
#	213218
#	227878
#	238632
#	250884
#
# Disc length: 3480 seconds
#
# Revision: 1
# Processed by: cddbd v1.4PL0 Copyright (c) Steve Scherf et al.
# Submitted via: EasyCDDAExtractor 5.0.7
#
DISCID=f00d9611
DTITLE=Charlie Vest and Assorted Artists - Thank God For Heaven
DYEAR=1998
DGENRE=Country
TTITLE0=Thank God For Heaven
TTITLE1=I'll Meet You In The Morning
TTITLE2=Mansion Over The Hilltop
TTITLE3=When We All Get To Heaven
TTITLE4=If You Could See Me Now
TTITLE5=What A Day That Will Be
TTITLE6=Beyond The Sunset
TTITLE7=Can You Imagine
TTITLE8=Oh What A Moment
TTITLE9=In The Sweet Forever
TTITLE10=I Shall Know Him
TTITLE11=Finally Home
TTITLE12=The Unclouded Day
TTITLE13=Daddy's Angel
TTITLE14=Beautiful Home
TTITLE15=Home Of The Soul
TTITLE16=In The Sweet By And By
EXTD=
EXTT0=
EXTT1=
EXTT2=
EXTT3=
EXTT4=
EXTT5=
EXTT6=
EXTT7=
EXTT8=
EXTT9=
EXTT10=
EXTT11=
EXTT12=
EXTT13=
EXTT14=
EXTT15=
EXTT16=
PLAYORDER=
